<svg xmlns="http://www.w3.org/2000/svg" viewBox="0 0 1600 112" width="1600" height="112" role="img" aria-labelledby="t" xmlns:c2pa="http://c2pa.org/manifest"><metadata><c2pa:manifest>AAAWgmp1bWIAAAAeanVtZGMycGEAEQAQgAAAqgA4m3EDYzJwYQAAABZcanVtYgAAAEdqdW1kYzJtYQARABCAAACqADibcQN1cm46YzJwYTpjNjAwZWFjZS04Mjg0LTQzMDgtOTlmNS0yNzc4MjA2MTQ5MWUAAAADl2p1bWIAAAApanVtZGMyYXMAEQAQgAAAqgA4m3EDYzJwYS5hc3NlcnRpb25zAAAAALxqdW1iAAAARGp1bWRjYm9yABEAEIAAAKoAOJtxE2MycGEuaW5ncmVkaWVudC52MwAAAAAYYzJzaH4LuYGsysDQvN2AltQ/9DQAAABwY2JvcqNpZGM6Zm9ybWF0bWltYWdlL3N2Zyt4bWxqaW5zdGFuY2VJRHgseG1wOmlpZDoyNjQ1NGYwMy04ZmY0LTQyMGMtODg2Ni1kYmE1OGU3NWQxMDlscmVsYXRpb25zaGlwaHBhcmVudE9mAAAB4mp1bWIAAABBanVtZGNib3IAEQAQgAAAqgA4m3ETYzJwYS5hY3Rpb25zLnYyAAAAABhjMnNoPnewgxwfw31dtQ4IVCIn4gAAAZljYm9yomdhY3Rpb25zgqJmYWN0aW9ua2MycGEub3BlbmVkanBhcmFtZXRlcnOha2luZ3JlZGllbnRzgaJjdXJseC1zZWxmI2p1bWJmPWMycGEuYXNzZXJ0aW9ucy9jMnBhLmluZ3JlZGllbnQudjNkaGFzaFggpICWV7aneglFpGeVa14RfsWPtGbn/dxnuerTNjhGvt6kZmFjdGlvbngdY29tLmFudGhyb3BpYy5jbGF1ZGUucHJvdmlkZWRqcGFyYW1ldGVyc6F4H2NvbS5hbnRocm9waWMub3JpZ2luLWNvbmZpZGVuY2VndW5rbm93bmtkZXNjcmlwdGlvbnhmQ2xhdWRlIHByb3ZpZGVkIHRoaXMgZmlsZSBhdCB0aGUgcmVxdWVzdCBvZiBhIHVzZXIgYW5kIG1heSBoYXZlIGNyZWF0ZWQgb3IgbW9kaWZpZWQgdGhlIGZpbGUgY29udGVudHMubXNvZnR3YXJlQWdlbnShZG5hbWVmQ2xhdWRlcmFsbEFjdGlvbnNJbmNsdWRlZPUAAADIanVtYgAAAEBqdW1kY2JvcgARABCAAACqADibcRNjMnBhLmhhc2guZGF0YQAAAAAYYzJzaPKbyAduROj5orwFvN+Bkl8AAACAY2JvcqVjYWxnZnNoYTI1NmNwYWRNAAAAAAAAAAAAAAAAAGRoYXNoWCBzIj0wyTTA5Tqq+e/oAV+zr2Xb+PWNgWFJJS15Dtk04mRuYW1lbmp1bWJmIG1hbmlmZXN0amV4Y2x1c2lvbnOBomVzdGFydBi3Zmxlbmd0aBkeBAAAAj5qdW1iAAAAJ2p1bWRjMmNsABEAEIAAAKoAOJtxA2MycGEuY2xhaW0udjIAAAACD2Nib3KlY2FsZ2ZzaGEyNTZpc2lnbmF0dXJleE1zZWxmI2p1bWJmPS9jMnBhL3VybjpjMnBhOmM2MDBlYWNlLTgyODQtNDMwOC05OWY1LTI3NzgyMDYxNDkxZS9jMnBhLnNpZ25hdHVyZWppbnN0YW5jZUlEeCx4bXA6aWlkOjllNzgxNTg4LWY0OWYtNGRhYS05NDhkLWFkZTBmNDE4ODQ2MXJjcmVhdGVkX2Fzc2VydGlvbnODomN1cmx4LXNlbGYjanVtYmY9YzJwYS5hc3NlcnRpb25zL2MycGEuaW5ncmVkaWVudC52M2RoYXNoWCCkgJZXtqd6CUWkZ5VrXhF+xY+0Zuf93Ge56tM2OEa+3qJjdXJseCpzZWxmI2p1bWJmPWMycGEuYXNzZXJ0aW9ucy9jMnBhLmFjdGlvbnMudjJkaGFzaFggsWOSfpHe5GB4XC3YleAr0UadIvNcj6xYZqFr7sX4Mf6iY3VybHgpc2VsZiNqdW1iZj1jMnBhLmFzc2VydGlvbnMvYzJwYS5oYXNoLmRhdGFkaGFzaFgg5Gg3vn0jzpnVzPhPyXyRX9TU1Wf1Dkfslfr13EkJOf90Y2xhaW1fZ2VuZXJhdG9yX2luZm+jZG5hbWVvQW50aHJvcGljIEZpbGVzZ3ZlcnNpb25lMS4wLjBrc3BlY1ZlcnNpb25lMi40LjAAABA4anVtYgAAAChqdW1kYzJjcwARABCAAACqADibcQNjMnBhLnNpZ25hdHVyZQAAABAIY2JvctKEWQISogEmGCFZAgowggIGMIIBjaADAgECAhRA5aAK7sI50L64g/oGQgU9Z1UTADAKBggqhkjOPQQDAzBJMRcwFQYDVQQKEw5BbnRocm9waWMsIFBCQzEuMCwGA1UEAxMlQW50aHJvcGljIENvbnRlbnQgQ3JlZGVudGlhbHMgUm9vdCBDQTAeFw0yNjA4MDcxODQzNTZaFw0yODA4MDYxOTQzNTZaMEQxFzAVBgNVBAoTDkFudGhyb3BpYywgUEJDMSkwJwYDVQQDEyBBbnRocm9waWMgQ2xhdWRlIENvbnRlbnQgU2lnbmluZzBZMBMGByqGSM49AgEGCCqGSM49AwEHA0IABJh6CmvLUBgFFNU0vUKlOVtE6djd17L5SuwX0LemFisBM3dkd/3cyjxFA3Qo5S46fX0/ihY0VZ7mfb9KF703t5OjWDBWMA4GA1UdDwEB/wQEAwIHgDAVBgNVHSUEDjAMBgorBgEEAYPoXgIBMAwGA1UdEwEB/wQCMAAwHwYDVR0jBBgwFoAUzlHiBIFOZFsj+OPEz5o+nMHXXMIwCgYIKoZIzj0EAwMDZwAwZAIwMXMdFJ4BetLLVY7ORuE9noqbbAZOZn/aArXyTwFAZfKrPzxF2vPoJNf1+UCdg1XGAjBwX1zd9WGqYkqmL5SFqw1QySjr1zJfpJM9+1rdDwSPLMOPOjKuiXjoU/pUUeG9RwmhY3BhZFkNngAAAAAAAAAAAAAAAAAAAAAAAAAAAAAAAAAAAAAAAAAAAAAAAAAAAAAAAAAAAAAAAAAAAAAAAAAAAAAAAAAAAAAAAAAAAAAAAAAAAAAAAAAAAAAAAAAAAAAAAAAAAAAAAAAAAAAAAAAAAAAAAAAAAAAAAAAAAAAAAAAAAAAAAAAAAAAAAAAAAAAAAAAAAAAAAAAAAAAAAAAAAAAAAAAAAAAAAAAAAAAAAAAAAAAAAAAAAAAAAAAAAAAAAAAAAAAAAAAAAAAAAAAAAAAAAAAAAAAAAAAAAAAAAAAAAAAAAAAAAAAAAAAAAAAAAAAAAAAAAAAAAAAAAAAAAAAAAAAAAAAAAAAAAAAAAAAAAAAAAAAAAAAAAAAAAAAAAAAAAAAAAAAAAAAAAAAAAAAAAAAAAAAAAAAAAAAAAAAAAAAAAAAAAAAAAAAAAAAAAAAAAAAAAAAAAAAAAAAAAAAAAAAAAAAAAAAAAAAAAAAAAAAAAAAAAAAAAAAAAAAAAAAAAAAAAAAAAAAAAAAAAAAAAAAAAAAAAAAAAAAAAAAAAAAAAAAAAAAAAAAAAAAAAAAAAAAAAAAAAAAAAAAAAAAAAAAAAAAAAAAAAAAAAAAAAAAAAAAAAAAAAAAAAAAAAAAAAAAAAAAAAAAAAAAAAAAAAAAAAAAAAAAAAAAAAAAAAAAAAAAAAAAAAAAAAAAAAAAAAAAAAAAAAAAAAAAAAAAAAAAAAAAAAAAAAAAAAAAAAAAAAAAAAAAAAAAAAAAAAAAAAAAAAAAAAAAAAAAAAAAAAAAAAAAAAAAAAAAAAAAAAAAAAAAAAAAAAAAAAAAAAAAAAAAAAAAAAAAAAAAAAAAAAAAAAAAAAAAAAAAAAAAAAAAAAAAAAAAAAAAAAAAAAAAAAAAAAAAAAAAAAAAAAAAAAAAAAAAAAAAAAAAAAAAAAAAAAAAAAAAAAAAAAAAAAAAAAAAAAAAAAAAAAAAAAAAAAAAAAAAAAAAAAAAAAAAAAAAAAAAAAAAAAAAAAAAAAAAAAAAAAAAAAAAAAAAAAAAAAAAAAAAAAAAAAAAAAAAAAAAAAAAAAAAAAAAAAAAAAAAAAAAAAAAAAAAAAAAAAAAAAAAAAAAAAAAAAAAAAAAAAAAAAAAAAAAAAAAAAAAAAAAAAAAAAAAAAAAAAAAAAAAAAAAAAAAAAAAAAAAAAAAAAAAAAAAAAAAAAAAAAAAAAAAAAAAAAAAAAAAAAAAAAAAAAAAAAAAAAAAAAAAAAAAAAAAAAAAAAAAAAAAAAAAAAAAAAAAAAAAAAAAAAAAAAAAAAAAAAAAAAAAAAAAAAAAAAAAAAAAAAAAAAAAAAAAAAAAAAAAAAAAAAAAAAAAAAAAAAAAAAAAAAAAAAAAAAAAAAAAAAAAAAAAAAAAAAAAAAAAAAAAAAAAAAAAAAAAAAAAAAAAAAAAAAAAAAAAAAAAAAAAAAAAAAAAAAAAAAAAAAAAAAAAAAAAAAAAAAAAAAAAAAAAAAAAAAAAAAAAAAAAAAAAAAAAAAAAAAAAAAAAAAAAAAAAAAAAAAAAAAAAAAAAAAAAAAAAAAAAAAAAAAAAAAAAAAAAAAAAAAAAAAAAAAAAAAAAAAAAAAAAAAAAAAAAAAAAAAAAAAAAAAAAAAAAAAAAAAAAAAAAAAAAAAAAAAAAAAAAAAAAAAAAAAAAAAAAAAAAAAAAAAAAAAAAAAAAAAAAAAAAAAAAAAAAAAAAAAAAAAAAAAAAAAAAAAAAAAAAAAAAAAAAAAAAAAAAAAAAAAAAAAAAAAAAAAAAAAAAAAAAAAAAAAAAAAAAAAAAAAAAAAAAAAAAAAAAAAAAAAAAAAAAAAAAAAAAAAAAAAAAAAAAAAAAAAAAAAAAAAAAAAAAAAAAAAAAAAAAAAAAAAAAAAAAAAAAAAAAAAAAAAAAAAAAAAAAAAAAAAAAAAAAAAAAAAAAAAAAAAAAAAAAAAAAAAAAAAAAAAAAAAAAAAAAAAAAAAAAAAAAAAAAAAAAAAAAAAAAAAAAAAAAAAAAAAAAAAAAAAAAAAAAAAAAAAAAAAAAAAAAAAAAAAAAAAAAAAAAAAAAAAAAAAAAAAAAAAAAAAAAAAAAAAAAAAAAAAAAAAAAAAAAAAAAAAAAAAAAAAAAAAAAAAAAAAAAAAAAAAAAAAAAAAAAAAAAAAAAAAAAAAAAAAAAAAAAAAAAAAAAAAAAAAAAAAAAAAAAAAAAAAAAAAAAAAAAAAAAAAAAAAAAAAAAAAAAAAAAAAAAAAAAAAAAAAAAAAAAAAAAAAAAAAAAAAAAAAAAAAAAAAAAAAAAAAAAAAAAAAAAAAAAAAAAAAAAAAAAAAAAAAAAAAAAAAAAAAAAAAAAAAAAAAAAAAAAAAAAAAAAAAAAAAAAAAAAAAAAAAAAAAAAAAAAAAAAAAAAAAAAAAAAAAAAAAAAAAAAAAAAAAAAAAAAAAAAAAAAAAAAAAAAAAAAAAAAAAAAAAAAAAAAAAAAAAAAAAAAAAAAAAAAAAAAAAAAAAAAAAAAAAAAAAAAAAAAAAAAAAAAAAAAAAAAAAAAAAAAAAAAAAAAAAAAAAAAAAAAAAAAAAAAAAAAAAAAAAAAAAAAAAAAAAAAAAAAAAAAAAAAAAAAAAAAAAAAAAAAAAAAAAAAAAAAAAAAAAAAAAAAAAAAAAAAAAAAAAAAAAAAAAAAAAAAAAAAAAAAAAAAAAAAAAAAAAAAAAAAAAAAAAAAAAAAAAAAAAAAAAAAAAAAAAAAAAAAAAAAAAAAAAAAAAAAAAAAAAAAAAAAAAAAAAAAAAAAAAAAAAAAAAAAAAAAAAAAAAAAAAAAAAAAAAAAAAAAAAAAAAAAAAAAAAAAAAAAAAAAAAAAAAAAAAAAAAAAAAAAAAAAAAAAAAAAAAAAAAAAAAAAAAAAAAAAAAAAAAAAAAAAAAAAAAAAAAAAAAAAAAAAAAAAAAAAAAAAAAAAAAAAAAAAAAAAAAAAAAAAAAAAAAAAAAAAAAAAAAAAAAAAAAAAAAAAAAAAAAAAAAAAAAAAAAAAAAAAAAAAAAAAAAAAAAAAAAAAAAAAAAAAAAAAAAAAAAAAAAAAAAAAAAAAAAAAAAAAAAAAAAAAAAAAAAAAAAAAAAAAAAAAAAAAAAAAAAAAAAAAAAAAAAAAAAAAAAAAAAAAAAAAAAAAAAAAAAAAAAAAAAAAAAAAAAAAAAAAAAAAAAAAAAAAAAAAAAAAAAAAAAAAAAAAAAAAAAAAAAAAAAAAAAAAAAAAAAAAAAAAAAAAAAAAAAAAAAAAAAAAAAAAAAAAAAAAAAAAAAAAAAAAAAAAAAAAAAAAAAAAAAAAAAAAAAAAAAAAAAAAAAAAAAAAAAAAAAAAAAAAAAAAAAAAAAAAAAAAAAAAAAAAAAAAAAAAAAAAAAAAAAAAAAAAAAAAAAAAAAAAAAAAAAAAAAAAAAAAAAAAAAAAAAAAAAAAAAAAAAAAAAAAAAAAAAAAAAAAAAAAAAAAAAAAAAAAAAAAAAAAAAAAAAAAAAAAAAAAAAAAAAAAAAAAAAAAAAAAAAAAAAAAAAAAAAAAAAAAAAAAAAAAAAAAAAAAAAAAAAAAAAAAAAAAAAAAAAAAAAAAAAAAAAAAAAAAAAAAAAAAAAAAAAAAAAAAAAAAAAAAAAAAAAAAAAAAAAAAAAAAAAAAAAAAAAAAAAAAAAAAAAAAAAAAAAAAAAAAAAAAAAAAAAAAAAAAAAAAAAAAAAAAAAAAAAAAAAAAAAAAAAAAAAAAAAAAAAAAAAAAAAAAAAAAAAAAAAAAAAAAAAAAAAAAAAAAAAAAAAAAAAAAAAAAAAAAAAAAAAAAAAAAAAAAAAAAAAAAAAAAAAAAAAAAAAAAAAAAAAAAAAAAAAAAAAAAAAAAAAAAAAAAAAAAAAAAAAAAAAAAAAAAAAAAAAAAAAAAAAAAAAAAAAAAAAAAAAAAAAAAAAAAAAAAAAAAAAAAAAAAAAAAAAAAAAAAAAAAAAAAAAAAAAAAAAAAAAAAAAAAAAAAAAAAAAAAAAAAAAAAAAAAAAAAAAAAAAAAAAAAAAAAAAAAAAAAAAAAAAAAAAAAAAAAAAAAAAAAAAAAAAAAAAAAAAAAAAAAAAAAAAAAAAAAAAAAAAAAAAAAAAAAAAAAAAAAAAAAAAAAAAAAAAAAAAAAAAAAAAAAAAAAAAAAAAAAAAAAAAAAAAAAAAAAAAAAAAAAAAAAAAAAAAAAAAAAAAAAAAAAAAAAAAAAAAAAAAAAAAAAAAAAAAAAAAAAAAAAAAAAAAAAAAAAAAAAAAAAAAAAAAAAAAAAAAAAAAAAAAAAAAAAAAAAAAAAAAAAAAAAAAAAAAAAAAAAAAAAAAAAAAAAAAAAAAAAAAAAAAAAAAAAAAAAAAAAAAAAAAAAAAAAAAAAAAAAAAAAAAAAAAAAAAAAAAAAAAAAAAAAAAAAAAAAAAAAAAAAAAAAAAAAAAAAAAAAAAAAAAAAAAAAAAAAAAAAAAAAAAAAAAAAAAAAAAAAAAAAAAAAAAAAAAAAAAAAAAAAAAAAAAAAAAAAAAAAAAAAAAAAAAAAAAAAAAAAAAAAAAAAAAAAAAAAAAAAAAAAAAAAAAAAAAAAAAAAAAAAAAAAAAAAAAAAAAAAAAAAAAAAAAAAAAAAAAAAAAAAAAAAAAAAAAAAAAAAAAAAAAAAAAAAAAPZYQJXxB/OPBx86R0Y4XUSVzXqNkp/tMakYDtAf53Ny10p7qRwgR+XKwG+gEA+lPQ7TkRvaBzJR/Ek+x/UrRD49TF8=</c2pa:manifest></metadata>
<title id="t">Now</title>
<defs><linearGradient id="g" x1="0" y1="0" x2="0" y2="1"><stop offset="0" stop-color="#0B1629"/><stop offset="1" stop-color="#172845"/></linearGradient><clipPath id="c"><rect width="1600" height="112" rx="12"/></clipPath></defs>
<style>.e{animation:draw .9s ease-out both}.r{animation:draw 1.1s ease-out .15s both}.n{animation:pop .7s ease-out both}.tw{animation:pop .7s ease-out both,tw 7s ease-in-out infinite}.p{animation-timing-function:linear}@keyframes draw{from{stroke-dashoffset:1}to{stroke-dashoffset:0}}@keyframes pop{from{opacity:0}to{opacity:0.52}}@keyframes tw{0%,100%{opacity:0.52}50%{opacity:1}}@media (prefers-reduced-motion:reduce){.e,.r,.n,.tw{animation:none}.p,.sat{display:none}}@keyframes s0{0%{transform:translate(249.3px,56px);opacity:0}8%{opacity:.85}91.79%{transform:translate(1475.8px,56px)}94.79%{transform:translate(1483.2px,16.5px)}97.08%{transform:translate(1513.8px,17px)}92%{opacity:.85}100%{transform:translate(1552.8px,19px);opacity:0}}</style>
<g clip-path="url(#c)">
<rect width="1600" height="112" fill="url(#g)"/>
<path d="M45.47 61.31L51.35 50.6L53.03 50.69L47.15 61.4ZM49.25 63.79Q47.63 63.79 46.45 62.85Q45.26 61.9 44.63 60.16Q44 58.41 44 56.02Q44 53.61 44.63 51.86Q45.26 50.12 46.45 49.16Q47.63 48.21 49.25 48.21Q50.89 48.21 52.06 49.16Q53.24 50.12 53.87 51.86Q54.5 53.61 54.5 56.02Q54.5 58.41 53.87 60.16Q53.24 61.9 52.06 62.85Q50.89 63.79 49.25 63.79ZM49.25 62.03Q50.3 62.03 51.05 61.29Q51.79 60.56 52.2 59.2Q52.61 57.85 52.61 56.02Q52.61 54.15 52.2 52.8Q51.79 51.44 51.05 50.71Q50.3 49.97 49.25 49.97Q48.22 49.97 47.47 50.71Q46.71 51.44 46.3 52.8Q45.89 54.15 45.89 56.02Q45.89 57.85 46.3 59.2Q46.71 60.56 47.47 61.29Q48.22 62.03 49.25 62.03ZM63.7 63.45L63.7 60.22L56.39 60.22L56.39 58.58L63.57 48.55L65.5 48.55L65.5 58.46L67.31 58.46L67.31 60.22L65.5 60.22L65.5 63.45ZM58.24 58.46L63.7 58.46L63.7 51.06Z" fill="#7E96BC"/>
<path d="M89.31 82.4L89.31 29.6L103.76 29.6L107.43 46.4L111.29 74.91L114.19 74.91L112.71 51.05L112.05 29.6L120.56 29.6L120.56 82.4L105.45 82.4L101.72 64.61L98.72 37.03L95.71 37.03L97.1 62.3L97.79 82.4ZM146.17 82.99Q139.24 82.99 136.17 80.19Q133.1 77.38 132.97 70.92Q132.9 66.82 132.87 63.14Q132.84 59.47 132.84 55.93Q132.84 52.4 132.87 48.74Q132.9 45.08 132.97 41.05Q133.1 34.58 136.17 31.79Q139.24 29.01 146.17 29.01Q153.03 29.01 156.09 31.79Q159.14 34.58 159.34 41.05Q159.47 45.08 159.53 48.74Q159.6 52.4 159.6 55.97Q159.6 59.53 159.53 63.19Q159.47 66.86 159.34 70.92Q159.14 77.38 156.09 80.19Q153.03 82.99 146.17 82.99ZM146.17 76.03Q148.68 76.03 149.75 74.98Q150.82 73.92 150.86 71.41Q151.02 67.35 151.1 63.54Q151.19 59.73 151.19 55.98Q151.19 52.24 151.1 48.41Q151.02 44.58 150.86 40.56Q150.82 38.05 149.75 37.01Q148.68 35.97 146.17 35.97Q143.69 35.97 142.61 37.01Q141.52 38.05 141.45 40.56Q141.28 44.55 141.22 48.36Q141.15 52.17 141.15 55.92Q141.15 59.66 141.22 63.49Q141.28 67.32 141.45 71.41Q141.52 73.92 142.61 74.98Q143.69 76.03 146.17 76.03ZM174.62 82.4L170.03 29.6L178.54 29.6L180.09 52.47L181.22 74.91L184.09 74.91L184.42 52.47L188.38 29.93L200.92 29.93L204.88 52.47L205.21 74.91L208.08 74.91L209.2 52.47L210.75 29.6L219.3 29.6L214.68 82.4L199.33 82.4L197.12 66.89L196.06 37.16L193.26 37.16L192.17 66.89L189.93 82.4Z" fill="#F5F8FC"/>
<g fill="none" stroke="#A9BEE8" stroke-opacity="0.18" stroke-width="1" stroke-linecap="round"><path d="M1476.2 53.5L1482.5 20.4" pathLength="1" stroke-dasharray="1 2" class="e" style="animation-delay:0.9s"/><path d="M1487.2 16.6L1510.5 16.9" pathLength="1" stroke-dasharray="1 2" class="e" style="animation-delay:1.02s"/><path d="M1517 17.2L1549.5 18.8" pathLength="1" stroke-dasharray="1 2" class="e" style="animation-delay:1.14s"/><path d="M1552.3 22.2L1548.2 50.3" pathLength="1" stroke-dasharray="1 2" class="e" style="animation-delay:1.38s"/><path d="M1544.6 54.4L1521.6 61.4" pathLength="1" stroke-dasharray="1 2" class="e" style="animation-delay:1.26s"/><path d="M1513.8 61.9L1478.2 56.4" pathLength="1" stroke-dasharray="1 2" class="e" style="animation-delay:0.9s"/></g>
<g class="n" opacity="0.52" style="animation-delay:0.9s"><circle cx="1475.8" cy="56" r="2.5" fill="none" stroke="#A9BEE8" stroke-opacity="0.72" stroke-width="1"/></g><g class="n" opacity="0.52" style="animation-delay:1.02s"><circle cx="1483.2" cy="16.5" r="4" fill="#A9BEE8" fill-opacity="0.49"/></g><g class="n" opacity="0.52" style="animation-delay:1.14s"><circle cx="1513.8" cy="17" r="3.2" fill="#A9BEE8" fill-opacity="0.49"/></g><g class="n" opacity="0.52" style="animation-delay:1.26s"><circle cx="1517.8" cy="62.5" r="4" fill="none" stroke="#A9BEE8" stroke-opacity="0.72" stroke-width="1"/></g><g class="n" opacity="0.52" style="animation-delay:1.38s"><circle cx="1547.8" cy="53.5" r="3.2" fill="#A9BEE8" fill-opacity="0.49"/></g><g class="n" opacity="0.52" style="animation-delay:1.5s"><circle cx="1552.8" cy="19" r="3.2" fill="#A9BEE8" fill-opacity="0.49"/></g>
<path d="M249.3 56H1473.2" fill="none" stroke="#506481" stroke-width="1.4" pathLength="1" stroke-dasharray="1 2" class="r"/>
<circle class="p" r="2.2" fill="#DCE8FF" opacity="0" style="animation-name:s0;animation-duration:2.6s;animation-delay:1.3s;animation-iteration-count:1"/>
</g>
<rect x="1" y="1" width="1598" height="110" rx="11" fill="none" stroke="#A9BEE8" stroke-opacity=".14" stroke-width="2"/>
</svg>
