<svg xmlns="http://www.w3.org/2000/svg" viewBox="0 0 1600 112" width="1600" height="112" role="img" aria-labelledby="t" xmlns:c2pa="http://c2pa.org/manifest"><metadata><c2pa:manifest>AAAWgmp1bWIAAAAeanVtZGMycGEAEQAQgAAAqgA4m3EDYzJwYQAAABZcanVtYgAAAEdqdW1kYzJtYQARABCAAACqADibcQN1cm46YzJwYTphMWUwNmM5MS1lNWMxLTRkNDItYTcxNS0xN2FhZDNjMWM4ODMAAAADl2p1bWIAAAApanVtZGMyYXMAEQAQgAAAqgA4m3EDYzJwYS5hc3NlcnRpb25zAAAAALxqdW1iAAAARGp1bWRjYm9yABEAEIAAAKoAOJtxE2MycGEuaW5ncmVkaWVudC52MwAAAAAYYzJzaFj7Eg/dyhGZNLTXwiizyN4AAABwY2JvcqNpZGM6Zm9ybWF0bWltYWdlL3N2Zyt4bWxqaW5zdGFuY2VJRHgseG1wOmlpZDo2OWRmNGEwZC00MzM3LTRjNDMtYWU3NS1hYTYzZWNhNjZiOGJscmVsYXRpb25zaGlwaHBhcmVudE9mAAAB4mp1bWIAAABBanVtZGNib3IAEQAQgAAAqgA4m3ETYzJwYS5hY3Rpb25zLnYyAAAAABhjMnNoCfDPp3cQGszcKfY2s9kWpgAAAZljYm9yomdhY3Rpb25zgqJmYWN0aW9ua2MycGEub3BlbmVkanBhcmFtZXRlcnOha2luZ3JlZGllbnRzgaJjdXJseC1zZWxmI2p1bWJmPWMycGEuYXNzZXJ0aW9ucy9jMnBhLmluZ3JlZGllbnQudjNkaGFzaFggku8RdT+svw8KnRNqGOmYiTLLvueSbsDsyyYvtLevfSikZmFjdGlvbngdY29tLmFudGhyb3BpYy5jbGF1ZGUucHJvdmlkZWRqcGFyYW1ldGVyc6F4H2NvbS5hbnRocm9waWMub3JpZ2luLWNvbmZpZGVuY2VndW5rbm93bmtkZXNjcmlwdGlvbnhmQ2xhdWRlIHByb3ZpZGVkIHRoaXMgZmlsZSBhdCB0aGUgcmVxdWVzdCBvZiBhIHVzZXIgYW5kIG1heSBoYXZlIGNyZWF0ZWQgb3IgbW9kaWZpZWQgdGhlIGZpbGUgY29udGVudHMubXNvZnR3YXJlQWdlbnShZG5hbWVmQ2xhdWRlcmFsbEFjdGlvbnNJbmNsdWRlZPUAAADIanVtYgAAAEBqdW1kY2JvcgARABCAAACqADibcRNjMnBhLmhhc2guZGF0YQAAAAAYYzJzaFlUOusJ9HeF18mJCg8G+/EAAACAY2JvcqVjYWxnZnNoYTI1NmNwYWRNAAAAAAAAAAAAAAAAAGRoYXNoWCBP7bfS19RPJUCMq+c5Cc+k5ppkdpjw+0vzmLEhAbRGd2RuYW1lbmp1bWJmIG1hbmlmZXN0amV4Y2x1c2lvbnOBomVzdGFydBi3Zmxlbmd0aBkeBAAAAj5qdW1iAAAAJ2p1bWRjMmNsABEAEIAAAKoAOJtxA2MycGEuY2xhaW0udjIAAAACD2Nib3KlY2FsZ2ZzaGEyNTZpc2lnbmF0dXJleE1zZWxmI2p1bWJmPS9jMnBhL3VybjpjMnBhOmExZTA2YzkxLWU1YzEtNGQ0Mi1hNzE1LTE3YWFkM2MxYzg4My9jMnBhLnNpZ25hdHVyZWppbnN0YW5jZUlEeCx4bXA6aWlkOjA1MDFlODQ3LWZiOWMtNDY1YS05ZWM0LWM1NTkzOTEwOGM2NXJjcmVhdGVkX2Fzc2VydGlvbnODomN1cmx4LXNlbGYjanVtYmY9YzJwYS5hc3NlcnRpb25zL2MycGEuaW5ncmVkaWVudC52M2RoYXNoWCCS7xF1P6y/DwqdE2oY6ZiJMsu+55JuwOzLJi+0t699KKJjdXJseCpzZWxmI2p1bWJmPWMycGEuYXNzZXJ0aW9ucy9jMnBhLmFjdGlvbnMudjJkaGFzaFggL79bksG0xYUWKCG2udEeZONg/nEj82Pd2afhMbJmIh+iY3VybHgpc2VsZiNqdW1iZj1jMnBhLmFzc2VydGlvbnMvYzJwYS5oYXNoLmRhdGFkaGFzaFggNB0ORVopiIX+Q/buNQV3jmTkCICW9MUcxRxQNBTLZj50Y2xhaW1fZ2VuZXJhdG9yX2luZm+jZG5hbWVvQW50aHJvcGljIEZpbGVzZ3ZlcnNpb25lMS4wLjBrc3BlY1ZlcnNpb25lMi40LjAAABA4anVtYgAAAChqdW1kYzJjcwARABCAAACqADibcQNjMnBhLnNpZ25hdHVyZQAAABAIY2JvctKEWQISogEmGCFZAgowggIGMIIBjaADAgECAhRA5aAK7sI50L64g/oGQgU9Z1UTADAKBggqhkjOPQQDAzBJMRcwFQYDVQQKEw5BbnRocm9waWMsIFBCQzEuMCwGA1UEAxMlQW50aHJvcGljIENvbnRlbnQgQ3JlZGVudGlhbHMgUm9vdCBDQTAeFw0yNjA4MDcxODQzNTZaFw0yODA4MDYxOTQzNTZaMEQxFzAVBgNVBAoTDkFudGhyb3BpYywgUEJDMSkwJwYDVQQDEyBBbnRocm9waWMgQ2xhdWRlIENvbnRlbnQgU2lnbmluZzBZMBMGByqGSM49AgEGCCqGSM49AwEHA0IABJh6CmvLUBgFFNU0vUKlOVtE6djd17L5SuwX0LemFisBM3dkd/3cyjxFA3Qo5S46fX0/ihY0VZ7mfb9KF703t5OjWDBWMA4GA1UdDwEB/wQEAwIHgDAVBgNVHSUEDjAMBgorBgEEAYPoXgIBMAwGA1UdEwEB/wQCMAAwHwYDVR0jBBgwFoAUzlHiBIFOZFsj+OPEz5o+nMHXXMIwCgYIKoZIzj0EAwMDZwAwZAIwMXMdFJ4BetLLVY7ORuE9noqbbAZOZn/aArXyTwFAZfKrPzxF2vPoJNf1+UCdg1XGAjBwX1zd9WGqYkqmL5SFqw1QySjr1zJfpJM9+1rdDwSPLMOPOjKuiXjoU/pUUeG9RwmhY3BhZFkNngAAAAAAAAAAAAAAAAAAAAAAAAAAAAAAAAAAAAAAAAAAAAAAAAAAAAAAAAAAAAAAAAAAAAAAAAAAAAAAAAAAAAAAAAAAAAAAAAAAAAAAAAAAAAAAAAAAAAAAAAAAAAAAAAAAAAAAAAAAAAAAAAAAAAAAAAAAAAAAAAAAAAAAAAAAAAAAAAAAAAAAAAAAAAAAAAAAAAAAAAAAAAAAAAAAAAAAAAAAAAAAAAAAAAAAAAAAAAAAAAAAAAAAAAAAAAAAAAAAAAAAAAAAAAAAAAAAAAAAAAAAAAAAAAAAAAAAAAAAAAAAAAAAAAAAAAAAAAAAAAAAAAAAAAAAAAAAAAAAAAAAAAAAAAAAAAAAAAAAAAAAAAAAAAAAAAAAAAAAAAAAAAAAAAAAAAAAAAAAAAAAAAAAAAAAAAAAAAAAAAAAAAAAAAAAAAAAAAAAAAAAAAAAAAAAAAAAAAAAAAAAAAAAAAAAAAAAAAAAAAAAAAAAAAAAAAAAAAAAAAAAAAAAAAAAAAAAAAAAAAAAAAAAAAAAAAAAAAAAAAAAAAAAAAAAAAAAAAAAAAAAAAAAAAAAAAAAAAAAAAAAAAAAAAAAAAAAAAAAAAAAAAAAAAAAAAAAAAAAAAAAAAAAAAAAAAAAAAAAAAAAAAAAAAAAAAAAAAAAAAAAAAAAAAAAAAAAAAAAAAAAAAAAAAAAAAAAAAAAAAAAAAAAAAAAAAAAAAAAAAAAAAAAAAAAAAAAAAAAAAAAAAAAAAAAAAAAAAAAAAAAAAAAAAAAAAAAAAAAAAAAAAAAAAAAAAAAAAAAAAAAAAAAAAAAAAAAAAAAAAAAAAAAAAAAAAAAAAAAAAAAAAAAAAAAAAAAAAAAAAAAAAAAAAAAAAAAAAAAAAAAAAAAAAAAAAAAAAAAAAAAAAAAAAAAAAAAAAAAAAAAAAAAAAAAAAAAAAAAAAAAAAAAAAAAAAAAAAAAAAAAAAAAAAAAAAAAAAAAAAAAAAAAAAAAAAAAAAAAAAAAAAAAAAAAAAAAAAAAAAAAAAAAAAAAAAAAAAAAAAAAAAAAAAAAAAAAAAAAAAAAAAAAAAAAAAAAAAAAAAAAAAAAAAAAAAAAAAAAAAAAAAAAAAAAAAAAAAAAAAAAAAAAAAAAAAAAAAAAAAAAAAAAAAAAAAAAAAAAAAAAAAAAAAAAAAAAAAAAAAAAAAAAAAAAAAAAAAAAAAAAAAAAAAAAAAAAAAAAAAAAAAAAAAAAAAAAAAAAAAAAAAAAAAAAAAAAAAAAAAAAAAAAAAAAAAAAAAAAAAAAAAAAAAAAAAAAAAAAAAAAAAAAAAAAAAAAAAAAAAAAAAAAAAAAAAAAAAAAAAAAAAAAAAAAAAAAAAAAAAAAAAAAAAAAAAAAAAAAAAAAAAAAAAAAAAAAAAAAAAAAAAAAAAAAAAAAAAAAAAAAAAAAAAAAAAAAAAAAAAAAAAAAAAAAAAAAAAAAAAAAAAAAAAAAAAAAAAAAAAAAAAAAAAAAAAAAAAAAAAAAAAAAAAAAAAAAAAAAAAAAAAAAAAAAAAAAAAAAAAAAAAAAAAAAAAAAAAAAAAAAAAAAAAAAAAAAAAAAAAAAAAAAAAAAAAAAAAAAAAAAAAAAAAAAAAAAAAAAAAAAAAAAAAAAAAAAAAAAAAAAAAAAAAAAAAAAAAAAAAAAAAAAAAAAAAAAAAAAAAAAAAAAAAAAAAAAAAAAAAAAAAAAAAAAAAAAAAAAAAAAAAAAAAAAAAAAAAAAAAAAAAAAAAAAAAAAAAAAAAAAAAAAAAAAAAAAAAAAAAAAAAAAAAAAAAAAAAAAAAAAAAAAAAAAAAAAAAAAAAAAAAAAAAAAAAAAAAAAAAAAAAAAAAAAAAAAAAAAAAAAAAAAAAAAAAAAAAAAAAAAAAAAAAAAAAAAAAAAAAAAAAAAAAAAAAAAAAAAAAAAAAAAAAAAAAAAAAAAAAAAAAAAAAAAAAAAAAAAAAAAAAAAAAAAAAAAAAAAAAAAAAAAAAAAAAAAAAAAAAAAAAAAAAAAAAAAAAAAAAAAAAAAAAAAAAAAAAAAAAAAAAAAAAAAAAAAAAAAAAAAAAAAAAAAAAAAAAAAAAAAAAAAAAAAAAAAAAAAAAAAAAAAAAAAAAAAAAAAAAAAAAAAAAAAAAAAAAAAAAAAAAAAAAAAAAAAAAAAAAAAAAAAAAAAAAAAAAAAAAAAAAAAAAAAAAAAAAAAAAAAAAAAAAAAAAAAAAAAAAAAAAAAAAAAAAAAAAAAAAAAAAAAAAAAAAAAAAAAAAAAAAAAAAAAAAAAAAAAAAAAAAAAAAAAAAAAAAAAAAAAAAAAAAAAAAAAAAAAAAAAAAAAAAAAAAAAAAAAAAAAAAAAAAAAAAAAAAAAAAAAAAAAAAAAAAAAAAAAAAAAAAAAAAAAAAAAAAAAAAAAAAAAAAAAAAAAAAAAAAAAAAAAAAAAAAAAAAAAAAAAAAAAAAAAAAAAAAAAAAAAAAAAAAAAAAAAAAAAAAAAAAAAAAAAAAAAAAAAAAAAAAAAAAAAAAAAAAAAAAAAAAAAAAAAAAAAAAAAAAAAAAAAAAAAAAAAAAAAAAAAAAAAAAAAAAAAAAAAAAAAAAAAAAAAAAAAAAAAAAAAAAAAAAAAAAAAAAAAAAAAAAAAAAAAAAAAAAAAAAAAAAAAAAAAAAAAAAAAAAAAAAAAAAAAAAAAAAAAAAAAAAAAAAAAAAAAAAAAAAAAAAAAAAAAAAAAAAAAAAAAAAAAAAAAAAAAAAAAAAAAAAAAAAAAAAAAAAAAAAAAAAAAAAAAAAAAAAAAAAAAAAAAAAAAAAAAAAAAAAAAAAAAAAAAAAAAAAAAAAAAAAAAAAAAAAAAAAAAAAAAAAAAAAAAAAAAAAAAAAAAAAAAAAAAAAAAAAAAAAAAAAAAAAAAAAAAAAAAAAAAAAAAAAAAAAAAAAAAAAAAAAAAAAAAAAAAAAAAAAAAAAAAAAAAAAAAAAAAAAAAAAAAAAAAAAAAAAAAAAAAAAAAAAAAAAAAAAAAAAAAAAAAAAAAAAAAAAAAAAAAAAAAAAAAAAAAAAAAAAAAAAAAAAAAAAAAAAAAAAAAAAAAAAAAAAAAAAAAAAAAAAAAAAAAAAAAAAAAAAAAAAAAAAAAAAAAAAAAAAAAAAAAAAAAAAAAAAAAAAAAAAAAAAAAAAAAAAAAAAAAAAAAAAAAAAAAAAAAAAAAAAAAAAAAAAAAAAAAAAAAAAAAAAAAAAAAAAAAAAAAAAAAAAAAAAAAAAAAAAAAAAAAAAAAAAAAAAAAAAAAAAAAAAAAAAAAAAAAAAAAAAAAAAAAAAAAAAAAAAAAAAAAAAAAAAAAAAAAAAAAAAAAAAAAAAAAAAAAAAAAAAAAAAAAAAAAAAAAAAAAAAAAAAAAAAAAAAAAAAAAAAAAAAAAAAAAAAAAAAAAAAAAAAAAAAAAAAAAAAAAAAAAAAAAAAAAAAAAAAAAAAAAAAAAAAAAAAAAAAAAAAAAAAAAAAAAAAAAAAAAAAAAAAAAAAAAAAAAAAAAAAAAAAAAAAAAAAAAAAAAAAAAAAAAAAAAAAAAAAAAAAAAAAAAAAAAAAAAAAAAAAAAAAAAAAAAAAAAAAAAAAAAAAAAAAAAAAAAAAAAAAAAAAAAAAAAAAAAAAAAAAAAAAAAAAAAAAAAAAAAAAAAAAAAAAAAAAAAAAAAAAAAAAAAAAAAAAAAAAAAAAAAAAAAAAAAAAAAAAAAAAAAAAAAAAAAAAAAAAAAAAAAAAAAAAAAAAAAAAAAAAAAAAAAAAAAAAAAAAAAAAAAAAAAAAAAAAAAAAAAAAAAAAAAAAAAAAAAAAAAAAAAAAAAAAAAAAAAAAAAAAAAAAAAAAAAAAAAAAAAAAAAAAAAAAAAAAAAAAAAAAAAAAAAAAAAAAAAAAAAAAAAAAAAAAAAAAAAAAAAAAAAAAAAAAAAAAAAAAAAAAAAAAAAAAAAAAAAAAAAAAAAAAAAAAAAAAAAAAAAAAAAAAAAAAAAAAAAAAAAAAAAAAAAAAAAAAAAAAAAAAAAAAAAAAAAAAAAAAAAAAAAAAAAAAAAAAAAAAAAAAAAAAAAAAAAAAAAAAAAAAAAAAAAAAAAAAAAAAAAAAAAAAAAAAAAAAAAAAAAAAAAAAAAAAAAAAAAAAAAAAAAAAAAAAAAAAAAAAAAAAAAAAAAAAAAAAAAAAAAAAAAAAAAAAAAAAAAAAAAAAAAAAAAAAAAAAAAAAAAAAAAAAAAAAAAAAAAAAAAAAAAAAAAAAAAAAAAAAAAAAAAAAAAAAAAAAAAAAAAAAAAAAAAAAAAAAAAAAAAAAAAAAAAAAAAAAAAAAAAAAAAAAAAAAAAAAAAAAAAAAAAAAAAAAAAAAAAAAAAAAAAAAAAAAAAAAAAAAAAAAAAAAAAAAAAAAAAAAAAAAAAAAAAAAAAAAAAAAAAAAAAAAAAAAAAAAAAAAAAAAAAAAAAAAAAAAAAAAAAAAAAAAAAAAAAAAAAAAAAAAAAAAAAAAAAAAAAAAAAAAAAAAAAAAAAAAAAAAAAAAAAAAAAAAAAAAAAAAAAAAAAAAAAAAAAAAAAAAAAAAAAAAAAAAAAAAAAAAAAAAAAAAAAAAAAAAAAAAAAAAAAAAAAAAAAAAAAAAAAAAAAAAAAAAAAAAAAAAAAAAAAAAAAAAAAAAAAAAAAAAAAAPZYQGQm/3YBYOTXS51bF6YBOmFVOHyKHK3JU7TuGHhnnaSHP3Msk9pB23/Y/XL52Cl8GIHRdeJXCe/WzRvt92b+vHU=</c2pa:manifest></metadata>
<title id="t">Beyond the pins</title>
<defs><linearGradient id="g" x1="0" y1="0" x2="0" y2="1"><stop offset="0" stop-color="#0B1629"/><stop offset="1" stop-color="#172845"/></linearGradient><clipPath id="c"><rect width="1600" height="112" rx="12"/></clipPath></defs>
<style>.e{animation:draw .9s ease-out both}.r{animation:draw 1.1s ease-out .15s both}.n{animation:pop .7s ease-out both}.tw{animation:pop .7s ease-out both,tw 7s ease-in-out infinite}.p{animation-timing-function:linear}@keyframes draw{from{stroke-dashoffset:1}to{stroke-dashoffset:0}}@keyframes pop{from{opacity:0}to{opacity:0.52}}@keyframes tw{0%,100%{opacity:0.52}50%{opacity:1}}@media (prefers-reduced-motion:reduce){.e,.r,.n,.tw{animation:none}.p,.sat{display:none}}@keyframes s0{0%{transform:translate(617.3px,56px);opacity:0}8%{opacity:.85}84.52%{transform:translate(1415.4px,56px)}92%{transform:translate(1477.6px,22.4px)}92%{opacity:.85}100%{transform:translate(1551.5px,38.1px);opacity:0}}</style>
<g clip-path="url(#c)">
<rect width="1600" height="112" fill="url(#g)"/>
<path d="M45.47 61.31L51.35 50.6L53.03 50.69L47.15 61.4ZM49.25 63.79Q47.63 63.79 46.45 62.85Q45.26 61.9 44.63 60.16Q44 58.41 44 56.02Q44 53.61 44.63 51.86Q45.26 50.12 46.45 49.16Q47.63 48.21 49.25 48.21Q50.89 48.21 52.06 49.16Q53.24 50.12 53.87 51.86Q54.5 53.61 54.5 56.02Q54.5 58.41 53.87 60.16Q53.24 61.9 52.06 62.85Q50.89 63.79 49.25 63.79ZM49.25 62.03Q50.3 62.03 51.05 61.29Q51.79 60.56 52.2 59.2Q52.61 57.85 52.61 56.02Q52.61 54.15 52.2 52.8Q51.79 51.44 51.05 50.71Q50.3 49.97 49.25 49.97Q48.22 49.97 47.47 50.71Q46.71 51.44 46.3 52.8Q45.89 54.15 45.89 56.02Q45.89 57.85 46.3 59.2Q46.71 60.56 47.47 61.29Q48.22 62.03 49.25 62.03ZM61.72 63.79Q59.31 63.79 58.01 62.63Q56.71 61.46 56.6 59.61L58.47 59.49Q58.6 60.85 59.49 61.44Q60.38 62.03 61.72 62.03Q62.63 62.03 63.43 61.76Q64.22 61.5 64.72 60.9Q65.21 60.3 65.21 59.3Q65.21 58.31 64.77 57.67Q64.33 57.03 63.56 56.72Q62.8 56.42 61.83 56.42L60.65 56.42L60.65 54.66L61.83 54.66Q62.61 54.66 63.26 54.42Q63.91 54.19 64.3 53.68Q64.69 53.16 64.69 52.32Q64.69 51.17 63.95 50.57Q63.22 49.97 61.83 49.97Q60.42 49.97 59.7 50.54Q58.97 51.11 58.83 52.09L56.94 51.97Q57.15 50.29 58.41 49.25Q59.67 48.21 61.83 48.21Q63.28 48.21 64.35 48.7Q65.42 49.2 66 50.1Q66.58 51 66.58 52.24Q66.58 53.63 65.7 54.48Q64.83 55.33 63.13 55.64L63.13 55.27Q64.96 55.47 66.03 56.57Q67.1 57.66 67.1 59.3Q67.1 60.73 66.41 61.73Q65.71 62.74 64.5 63.27Q63.28 63.79 61.72 63.79Z" fill="#7E96BC"/>
<path d="M89.1 82.4L89.1 29.6L101.44 29.6Q108.17 29.6 111.26 32.29Q114.34 34.98 114.34 41.22Q114.34 42.87 114.34 44.19Q114.34 45.51 114.28 46.79Q114.08 50.16 112.79 52.12Q111.51 54.09 108.73 54.98L108.73 56.4Q111.61 57.29 112.93 59.28Q114.25 61.28 114.38 64.75Q114.48 66.36 114.46 67.73Q114.44 69.1 114.38 70.78Q114.15 76.99 111.18 79.69Q108.21 82.4 101.47 82.4ZM97.58 74.88L101.47 74.88Q103.72 74.88 104.81 73.84Q105.9 72.8 105.93 70.65Q105.93 69.2 105.93 67.88Q105.93 66.56 105.93 65.11Q105.9 61.97 104.89 60.69Q103.88 59.4 101.54 59.4L97.58 59.4ZM97.58 51.88L101.57 51.88Q103.75 51.88 104.81 50.52Q105.86 49.17 105.86 46.56Q105.9 45.04 105.9 43.67Q105.9 42.31 105.86 40.79Q105.86 38.94 104.77 38.02Q103.69 37.09 101.44 37.09L97.58 37.09ZM126.29 82.4L126.29 29.6L148.33 29.6L148.33 37.09L134.77 37.09L134.77 51.88L147.67 51.88L147.67 59.37L134.77 59.37L134.77 74.91L148.33 74.91L148.33 82.4ZM166.16 82.4L166.16 65.41L164.97 65.41L156.82 29.6L165.46 29.6L168.13 43.03L169.46 58.44L171.34 58.44L172.62 43.03L175.3 29.6L183.97 29.6L175.72 65.41L174.64 65.41L174.64 82.4ZM206.84 82.99Q199.91 82.99 196.84 80.19Q193.78 77.38 193.64 70.92Q193.58 66.82 193.54 63.14Q193.51 59.47 193.51 55.93Q193.51 52.4 193.54 48.74Q193.58 45.08 193.64 41.05Q193.78 34.58 196.84 31.79Q199.91 29.01 206.84 29.01Q213.71 29.01 216.76 31.79Q219.81 34.58 220.01 41.05Q220.14 45.08 220.21 48.74Q220.27 52.4 220.27 55.97Q220.27 59.53 220.21 63.19Q220.14 66.86 220.01 70.92Q219.81 77.38 216.76 80.19Q213.71 82.99 206.84 82.99ZM206.84 76.03Q209.35 76.03 210.42 74.98Q211.5 73.92 211.53 71.41Q211.69 67.35 211.78 63.54Q211.86 59.73 211.86 55.98Q211.86 52.24 211.78 48.41Q211.69 44.58 211.53 40.56Q211.5 38.05 210.42 37.01Q209.35 35.97 206.84 35.97Q204.37 35.97 203.28 37.01Q202.19 38.05 202.12 40.56Q201.96 44.55 201.89 48.36Q201.83 52.17 201.83 55.92Q201.83 59.66 201.89 63.49Q201.96 67.32 202.12 71.41Q202.19 73.92 203.28 74.98Q204.37 76.03 206.84 76.03ZM232.55 82.4L232.55 29.6L247 29.6L250.67 46.4L254.53 74.91L257.43 74.91L255.95 51.05L255.29 29.6L263.8 29.6L263.8 82.4L248.69 82.4L244.96 64.61L241.96 37.03L238.95 37.03L240.34 62.3L241.03 82.4ZM276.67 82.4L276.67 29.6L289.44 29.6Q296.21 29.6 299.21 32.42Q302.21 35.24 302.35 41.71Q302.44 46.79 302.48 51.4Q302.51 56 302.48 60.57Q302.44 65.14 302.35 70.26Q302.21 76.72 299.23 79.56Q296.24 82.4 289.54 82.4ZM285.15 74.91L289.54 74.91Q291.72 74.91 292.78 73.98Q293.83 73.06 293.87 71.21Q293.96 67.22 294.01 63.44Q294.06 59.66 294.06 55.97Q294.06 52.27 294.01 48.49Q293.96 44.71 293.87 40.75Q293.83 38.91 292.76 38Q291.69 37.09 289.44 37.09L285.15 37.09ZM340.63 82.4L340.63 37.09L331.85 37.09L331.85 29.6L357.82 29.6L357.82 37.09L349.07 37.09L349.07 82.4ZM367.62 82.4L367.62 29.6L376.1 29.6L376.1 51.88L384.71 51.88L384.71 29.6L393.19 29.6L393.19 82.4L384.71 82.4L384.71 59.37L376.1 59.37L376.1 82.4ZM406.06 82.4L406.06 29.6L428.11 29.6L428.11 37.09L414.55 37.09L414.55 51.88L427.45 51.88L427.45 59.37L414.55 59.37L414.55 74.91L428.11 74.91L428.11 82.4ZM459.52 82.4L459.52 29.6L472.2 29.6Q478.86 29.6 481.82 32.29Q484.77 34.98 485 41.15Q485.1 44.42 485.1 47.14Q485.1 49.86 485 52.9Q484.77 59.07 481.8 61.78Q478.83 64.48 472.2 64.48L468.01 64.48L468.01 82.4ZM468.01 56.96L472.2 56.96Q474.37 56.96 475.4 56.05Q476.42 55.14 476.52 53.33Q476.62 51.41 476.65 49.28Q476.68 47.16 476.65 44.96Q476.62 42.77 476.52 40.75Q476.42 38.91 475.4 38Q474.37 37.09 472.2 37.09L468.01 37.09ZM496.39 82.4L496.39 29.6L504.87 29.6L504.87 82.4ZM517.74 82.4L517.74 29.6L532.19 29.6L535.85 46.4L539.71 74.91L542.62 74.91L541.13 51.05L540.47 29.6L548.99 29.6L548.99 82.4L533.87 82.4L530.14 64.61L527.14 37.03L524.14 37.03L525.52 62.3L526.22 82.4ZM574.07 82.99Q567.27 82.99 564.25 80.22Q561.23 77.45 560.97 70.98Q560.93 69.7 560.93 68.31Q560.93 66.92 561 65.54Q561.07 64.15 561.2 62.8L569.18 62.8Q569.05 65.37 569.04 67.83Q569.02 70.29 569.18 72.47Q569.35 74.28 570.54 75.16Q571.72 76.03 574.03 76.03Q576.25 76.03 577.38 75.16Q578.52 74.28 578.72 72.47Q578.85 71.25 578.89 69.98Q578.92 68.71 578.87 67.43Q578.82 66.16 578.72 64.94Q578.59 63.19 577.58 61.99Q576.58 60.79 574.79 60.36L569.48 59.14Q566.25 58.38 564.38 56.83Q562.52 55.27 561.69 52.87Q560.87 50.46 560.77 47.16Q560.74 45.51 560.74 44Q560.74 42.5 560.77 40.95Q560.93 36.66 562.34 34.04Q563.74 31.42 566.59 30.21Q569.45 29.01 574.03 29.01Q580.73 29.01 583.74 31.76Q586.74 34.52 586.97 40.95Q587.04 42.57 587 44.75Q586.97 46.93 586.87 48.94L578.72 48.94Q578.82 46.46 578.85 44.12Q578.89 41.78 578.79 39.47Q578.72 37.69 577.53 36.83Q576.34 35.97 574.03 35.97Q571.79 35.97 570.62 36.83Q569.45 37.69 569.25 39.47Q569.08 41.41 569.08 43.31Q569.08 45.21 569.25 47.16Q569.38 48.94 570.14 50.13Q570.9 51.31 572.62 51.68L577.37 52.7Q580.87 53.49 582.99 55.09Q585.12 56.69 586.11 59.15Q587.1 61.61 587.23 64.94Q587.27 65.9 587.27 66.94Q587.27 67.98 587.25 69Q587.23 70.03 587.17 70.98Q586.9 77.45 583.87 80.22Q580.83 82.99 574.07 82.99Z" fill="#F5F8FC"/>
<g fill="none" stroke="#A9BEE8" stroke-opacity="0.18" stroke-width="1" stroke-linecap="round"><path d="M1417.9 54.7L1474.9 23.9" pathLength="1" stroke-dasharray="1 2" class="e" style="animation-delay:0.9s"/><path d="M1418.2 56.6L1478 69.2" pathLength="1" stroke-dasharray="1 2" class="e" style="animation-delay:0.9s"/><path d="M1477.9 25.5L1481.2 66.4" pathLength="1" stroke-dasharray="1 2" class="e" style="animation-delay:1.02s"/><path d="M1479.6 24.7L1505.5 54.3" pathLength="1" stroke-dasharray="1 2" class="e" style="animation-delay:1.02s"/><path d="M1480.6 23L1547.1 37.2" pathLength="1" stroke-dasharray="1 2" class="e" style="animation-delay:1.02s"/><path d="M1484.8 68.5L1504.3 59.5" pathLength="1" stroke-dasharray="1 2" class="e" style="animation-delay:1.14s"/><path d="M1512.5 55.8L1547.4 39.9" pathLength="1" stroke-dasharray="1 2" class="e" style="animation-delay:1.26s"/></g>
<g class="n" opacity="0.52" style="animation-delay:0.9s"><circle cx="1415.4" cy="56" r="2.8" fill="#A9BEE8" fill-opacity="0.49"/></g><g class="n" opacity="0.52" style="animation-delay:1.02s"><circle cx="1477.6" cy="22.4" r="3.1" fill="#A9BEE8" fill-opacity="0.49"/></g><g class="n" opacity="0.52" style="animation-delay:1.14s"><circle cx="1481.5" cy="70" r="3.6" fill="#A9BEE8" fill-opacity="0.49"/></g><g class="n" opacity="0.52" style="animation-delay:1.26s"><circle cx="1508.4" cy="57.7" r="4.5" fill="#A9BEE8" fill-opacity="0.49"/></g><g class="n" opacity="0.52" style="animation-delay:1.38s"><circle cx="1551.5" cy="38.1" r="4.5" fill="#A9BEE8" fill-opacity="0.49"/></g>
<path d="M617.3 56H1412.6" fill="none" stroke="#506481" stroke-width="1.4" pathLength="1" stroke-dasharray="1 2" class="r"/>
<circle class="p" r="2.2" fill="#DCE8FF" opacity="0" style="animation-name:s0;animation-duration:2.6s;animation-delay:1.3s;animation-iteration-count:1"/>
</g>
<rect x="1" y="1" width="1598" height="110" rx="11" fill="none" stroke="#A9BEE8" stroke-opacity=".14" stroke-width="2"/>
</svg>
